<?xml version="1.0" encoding="utf-8"?>
<!-- Generator: Adobe Illustrator 24.3.0, SVG Export Plug-In . SVG Version: 6.00 Build 0)  -->
<svg version="1.1" id="Livello_1" xmlns="http://www.w3.org/2000/svg" xmlns:xlink="http://www.w3.org/1999/xlink" x="0px" y="0px"
	 viewBox="0 0 109.4 110" style="enable-background:new 0 0 109.4 110;" xml:space="preserve">
<g>
	<path d="M54.7,8c-26,0-47,21-47,47s21,47,47,47s47-21,47-47S80.7,8,54.7,8z M54.7,85c-16.6,0-30-13.4-30-30s13.4-30,30-30
		s30,13.4,30,30S71.3,85,54.7,85z"/>
	<polygon points="54.7,4 49.6,12.8 59.8,12.8 	"/>
	<polygon points="35.2,7.9 33.9,18 43.3,14.1 	"/>
	<polygon points="18.7,18.9 21.3,28.8 28.5,21.6 	"/>
	<polygon points="7.6,35.5 13.8,43.6 17.7,34.2 	"/>
	<polygon points="3.7,55 12.5,60.1 12.5,49.9 	"/>
	<polygon points="7.6,74.5 17.7,75.8 13.8,66.4 	"/>
	<polygon points="18.7,91.1 28.5,88.4 21.3,81.2 	"/>
	<polygon points="35.2,102.1 43.3,95.9 33.9,92 	"/>
	<polygon points="54.7,106 59.8,97.2 49.6,97.2 	"/>
	<polygon points="74.2,102.1 75.6,92 66.2,95.9 	"/>
	<polygon points="90.8,91.1 88.2,81.2 81,88.4 	"/>
	<polygon points="101.8,74.5 95.6,66.4 91.7,75.8 	"/>
	<polygon points="105.7,55 96.9,49.9 96.9,60.1 	"/>
	<polygon points="101.8,35.5 91.7,34.2 95.6,43.6 	"/>
	<polygon points="90.8,18.9 81,21.6 88.2,28.8 	"/>
	<polygon points="74.2,7.9 66.2,14.1 75.6,18 	"/>
	<circle cx="54.7" cy="55" r="19"/>
</g>
</svg>
